<mxfile host="app.diagrams.net" modified="2024-06-11T03:01:16.380Z" agent="Mozilla/5.0 (Windows NT 10.0; Win64; x64; rv:126.0) Gecko/20100101 Firefox/126.0" etag="JHFnNXVsCUY1N7CVRDVl" version="24.5.2" type="github" pages="3">
  <diagram name="ページ1" id="9BTHlunVfkpYcoa-GcSF">
    <mxGraphModel dx="989" dy="539" grid="1" gridSize="10" guides="1" tooltips="1" connect="1" arrows="1" fold="1" page="1" pageScale="1" pageWidth="827" pageHeight="1169" math="0" shadow="0">
      <root>
        <mxCell id="0" />
        <mxCell id="1" parent="0" />
        <mxCell id="JNIvnvbmXsin8aF_5GHh-49" value="" style="rounded=1;whiteSpace=wrap;html=1;" vertex="1" parent="1">
          <mxGeometry x="20" y="700" width="800" height="310" as="geometry" />
        </mxCell>
        <mxCell id="JNIvnvbmXsin8aF_5GHh-34" value="" style="rounded=1;whiteSpace=wrap;html=1;dashed=1;dashPattern=8 8;strokeColor=#b85450;fillColor=#f8cecc;gradientColor=#F26F6A;" vertex="1" parent="1">
          <mxGeometry x="270" y="10" width="550" height="680" as="geometry" />
        </mxCell>
        <mxCell id="JNIvnvbmXsin8aF_5GHh-28" value="" style="rounded=1;whiteSpace=wrap;html=1;fillColor=#f5f5f5;gradientColor=#b3b3b3;strokeColor=#666666;" vertex="1" parent="1">
          <mxGeometry x="290" y="395" width="270" height="260" as="geometry" />
        </mxCell>
        <mxCell id="JNIvnvbmXsin8aF_5GHh-2" value="" style="html=1;verticalLabelPosition=bottom;align=center;labelBackgroundColor=#ffffff;verticalAlign=top;strokeWidth=2;strokeColor=#0080F0;shadow=0;dashed=0;shape=mxgraph.ios7.icons.monitor;" vertex="1" parent="1">
          <mxGeometry x="20" y="140" width="210" height="190" as="geometry" />
        </mxCell>
        <mxCell id="JNIvnvbmXsin8aF_5GHh-3" value="localhost" style="text;html=1;align=center;verticalAlign=middle;whiteSpace=wrap;rounded=0;" vertex="1" parent="1">
          <mxGeometry x="20" y="110" width="60" height="30" as="geometry" />
        </mxCell>
        <mxCell id="JNIvnvbmXsin8aF_5GHh-4" value="名前の入力欄" style="text;html=1;align=center;verticalAlign=middle;whiteSpace=wrap;rounded=0;strokeColor=#FF0000;fontColor=#FF0000;strokeWidth=3;" vertex="1" parent="1">
          <mxGeometry x="50" y="170" width="80" height="30" as="geometry" />
        </mxCell>
        <mxCell id="JNIvnvbmXsin8aF_5GHh-5" value="emailの入力欄" style="text;html=1;align=center;verticalAlign=middle;whiteSpace=wrap;rounded=0;strokeColor=#0000FF;fontColor=#0000FF;strokeWidth=3;" vertex="1" parent="1">
          <mxGeometry x="50" y="230" width="90" height="30" as="geometry" />
        </mxCell>
        <mxCell id="JNIvnvbmXsin8aF_5GHh-12" style="rounded=0;orthogonalLoop=1;jettySize=auto;html=1;" edge="1" parent="1" source="JNIvnvbmXsin8aF_5GHh-6" target="JNIvnvbmXsin8aF_5GHh-10">
          <mxGeometry relative="1" as="geometry" />
        </mxCell>
        <mxCell id="JNIvnvbmXsin8aF_5GHh-13" style="rounded=0;orthogonalLoop=1;jettySize=auto;html=1;" edge="1" parent="1" source="JNIvnvbmXsin8aF_5GHh-6" target="JNIvnvbmXsin8aF_5GHh-11">
          <mxGeometry relative="1" as="geometry" />
        </mxCell>
        <mxCell id="JNIvnvbmXsin8aF_5GHh-6" value="PHPくん" style="shape=note;whiteSpace=wrap;html=1;backgroundOutline=1;darkOpacity=0.05;" vertex="1" parent="1">
          <mxGeometry x="450" y="100" width="80" height="100" as="geometry" />
        </mxCell>
        <mxCell id="JNIvnvbmXsin8aF_5GHh-7" style="rounded=0;orthogonalLoop=1;jettySize=auto;html=1;entryX=0;entryY=0.5;entryDx=0;entryDy=0;entryPerimeter=0;" edge="1" parent="1" source="JNIvnvbmXsin8aF_5GHh-4" target="JNIvnvbmXsin8aF_5GHh-6">
          <mxGeometry relative="1" as="geometry" />
        </mxCell>
        <mxCell id="JNIvnvbmXsin8aF_5GHh-8" style="rounded=0;orthogonalLoop=1;jettySize=auto;html=1;entryX=0;entryY=0.5;entryDx=0;entryDy=0;entryPerimeter=0;" edge="1" parent="1" source="JNIvnvbmXsin8aF_5GHh-5" target="JNIvnvbmXsin8aF_5GHh-6">
          <mxGeometry relative="1" as="geometry" />
        </mxCell>
        <mxCell id="JNIvnvbmXsin8aF_5GHh-9" value="[&lt;font color=&quot;#ff0000&quot;&gt;名前の入力欄]&lt;/font&gt;の内容を&lt;font color=&quot;#ff0000&quot;&gt;$name&lt;/font&gt;&lt;br&gt;[&lt;font color=&quot;#0000ff&quot;&gt;email&lt;/font&gt;]の入力欄の内容を&lt;font color=&quot;#0000ff&quot;&gt;$email&lt;/font&gt;&lt;br&gt;という変数のなかに格納しよう！" style="shape=callout;whiteSpace=wrap;html=1;perimeter=calloutPerimeter;position2=0.17;shadow=1;rounded=1;" vertex="1" parent="1">
          <mxGeometry x="520" y="20" width="210" height="120" as="geometry" />
        </mxCell>
        <mxCell id="JNIvnvbmXsin8aF_5GHh-10" value="$name" style="shape=cube;whiteSpace=wrap;html=1;boundedLbl=1;backgroundOutline=1;darkOpacity=0.05;darkOpacity2=0.1;gradientColor=#FF0000;fontColor=#FFFFFF;" vertex="1" parent="1">
          <mxGeometry x="460" y="280" width="130" height="90" as="geometry" />
        </mxCell>
        <mxCell id="JNIvnvbmXsin8aF_5GHh-11" value="$email" style="shape=cube;whiteSpace=wrap;html=1;boundedLbl=1;backgroundOutline=1;darkOpacity=0.05;darkOpacity2=0.1;gradientColor=#0000FF;fontColor=#FFFFFF;" vertex="1" parent="1">
          <mxGeometry x="630" y="280" width="130" height="90" as="geometry" />
        </mxCell>
        <mxCell id="JNIvnvbmXsin8aF_5GHh-24" style="edgeStyle=orthogonalEdgeStyle;rounded=0;orthogonalLoop=1;jettySize=auto;html=1;entryX=1;entryY=0.5;entryDx=0;entryDy=0;shape=flexArrow;fillColor=default;" edge="1" parent="1" source="JNIvnvbmXsin8aF_5GHh-14" target="JNIvnvbmXsin8aF_5GHh-19">
          <mxGeometry relative="1" as="geometry" />
        </mxCell>
        <mxCell id="JNIvnvbmXsin8aF_5GHh-14" value="PHPくん" style="shape=note;whiteSpace=wrap;html=1;backgroundOutline=1;darkOpacity=0.05;" vertex="1" parent="1">
          <mxGeometry x="580" y="460" width="80" height="100" as="geometry" />
        </mxCell>
        <mxCell id="JNIvnvbmXsin8aF_5GHh-15" value="変数の内容を&lt;br&gt;echoしよう！" style="shape=callout;whiteSpace=wrap;html=1;perimeter=calloutPerimeter;textShadow=0;shadow=1;rounded=1;position2=0.19;" vertex="1" parent="1">
          <mxGeometry x="650" y="420" width="120" height="80" as="geometry" />
        </mxCell>
        <mxCell id="JNIvnvbmXsin8aF_5GHh-16" style="rounded=0;orthogonalLoop=1;jettySize=auto;html=1;entryX=0.409;entryY=0.01;entryDx=0;entryDy=0;entryPerimeter=0;" edge="1" parent="1" source="JNIvnvbmXsin8aF_5GHh-10" target="JNIvnvbmXsin8aF_5GHh-14">
          <mxGeometry relative="1" as="geometry" />
        </mxCell>
        <mxCell id="JNIvnvbmXsin8aF_5GHh-17" style="rounded=0;orthogonalLoop=1;jettySize=auto;html=1;entryX=0.435;entryY=0.017;entryDx=0;entryDy=0;entryPerimeter=0;" edge="1" parent="1" source="JNIvnvbmXsin8aF_5GHh-11" target="JNIvnvbmXsin8aF_5GHh-14">
          <mxGeometry relative="1" as="geometry" />
        </mxCell>
        <mxCell id="JNIvnvbmXsin8aF_5GHh-18" value="※echoとは、&lt;b&gt;文字として書く&lt;/b&gt;こと" style="text;html=1;align=left;verticalAlign=middle;whiteSpace=wrap;rounded=0;" vertex="1" parent="1">
          <mxGeometry x="670" y="520" width="140" height="30" as="geometry" />
        </mxCell>
        <mxCell id="JNIvnvbmXsin8aF_5GHh-19" value="" style="whiteSpace=wrap;html=1;aspect=fixed;" vertex="1" parent="1">
          <mxGeometry x="335" y="420" width="180" height="180" as="geometry" />
        </mxCell>
        <mxCell id="JNIvnvbmXsin8aF_5GHh-20" value="&amp;lt;!DOCTYPE HTML&amp;gt;" style="text;html=1;align=center;verticalAlign=middle;whiteSpace=wrap;rounded=0;" vertex="1" parent="1">
          <mxGeometry x="335" y="420" width="130" height="30" as="geometry" />
        </mxCell>
        <mxCell id="JNIvnvbmXsin8aF_5GHh-21" value="&amp;lt;p&amp;gt;&lt;font color=&quot;#ff0000&quot;&gt;$nameの内容&lt;/font&gt;&amp;lt;/p&amp;gt;" style="text;html=1;align=left;verticalAlign=middle;whiteSpace=wrap;rounded=0;" vertex="1" parent="1">
          <mxGeometry x="345" y="510" width="160" height="30" as="geometry" />
        </mxCell>
        <mxCell id="JNIvnvbmXsin8aF_5GHh-23" value="&amp;lt;p&amp;gt;&lt;font color=&quot;#0000ff&quot;&gt;$emailの内容&lt;/font&gt;&amp;lt;/p&amp;gt;" style="text;html=1;align=left;verticalAlign=middle;whiteSpace=wrap;rounded=0;" vertex="1" parent="1">
          <mxGeometry x="345" y="540" width="160" height="30" as="geometry" />
        </mxCell>
        <mxCell id="JNIvnvbmXsin8aF_5GHh-25" value="送信" style="rounded=1;whiteSpace=wrap;html=1;" vertex="1" parent="1">
          <mxGeometry x="170" y="260" width="50" height="20" as="geometry" />
        </mxCell>
        <mxCell id="JNIvnvbmXsin8aF_5GHh-26" value="変数に格納&lt;br&gt;＝箱に入れること" style="text;html=1;align=center;verticalAlign=middle;whiteSpace=wrap;rounded=0;" vertex="1" parent="1">
          <mxGeometry x="590" y="180" width="155" height="30" as="geometry" />
        </mxCell>
        <mxCell id="JNIvnvbmXsin8aF_5GHh-27" value="&lt;div align=&quot;left&quot;&gt;PHPのechoの出力が埋め込まれたHTMLが完成！&lt;/div&gt;" style="text;html=1;align=left;verticalAlign=middle;whiteSpace=wrap;rounded=0;" vertex="1" parent="1">
          <mxGeometry x="330" y="610" width="190" height="30" as="geometry" />
        </mxCell>
        <mxCell id="JNIvnvbmXsin8aF_5GHh-29" value="完成したHTML" style="text;html=1;align=center;verticalAlign=middle;whiteSpace=wrap;rounded=0;" vertex="1" parent="1">
          <mxGeometry x="330" y="660" width="190" height="30" as="geometry" />
        </mxCell>
        <mxCell id="JNIvnvbmXsin8aF_5GHh-30" style="edgeStyle=orthogonalEdgeStyle;rounded=0;orthogonalLoop=1;jettySize=auto;html=1;entryX=0.192;entryY=0.84;entryDx=0;entryDy=0;entryPerimeter=0;strokeColor=none;exitX=0;exitY=0.5;exitDx=0;exitDy=0;" edge="1" parent="1" source="JNIvnvbmXsin8aF_5GHh-28" target="JNIvnvbmXsin8aF_5GHh-2">
          <mxGeometry relative="1" as="geometry" />
        </mxCell>
        <mxCell id="JNIvnvbmXsin8aF_5GHh-31" style="edgeStyle=orthogonalEdgeStyle;rounded=0;orthogonalLoop=1;jettySize=auto;html=1;entryX=0.196;entryY=0.845;entryDx=0;entryDy=0;entryPerimeter=0;exitX=0;exitY=0.5;exitDx=0;exitDy=0;" edge="1" parent="1" source="JNIvnvbmXsin8aF_5GHh-28" target="JNIvnvbmXsin8aF_5GHh-2">
          <mxGeometry relative="1" as="geometry" />
        </mxCell>
        <mxCell id="JNIvnvbmXsin8aF_5GHh-32" value="完成したHTMLを&lt;br&gt;ブラウザで表示！" style="text;html=1;align=center;verticalAlign=middle;whiteSpace=wrap;rounded=0;" vertex="1" parent="1">
          <mxGeometry x="100" y="460" width="130" height="30" as="geometry" />
        </mxCell>
        <mxCell id="JNIvnvbmXsin8aF_5GHh-33" value="PHPがやっていること：&lt;br&gt;ユーザーが欄に入力した内容に応じて&lt;br&gt;HTMLをオーダーメイドで作る" style="text;html=1;align=left;verticalAlign=middle;whiteSpace=wrap;rounded=0;" vertex="1" parent="1">
          <mxGeometry x="20" y="30" width="230" height="50" as="geometry" />
        </mxCell>
        <mxCell id="JNIvnvbmXsin8aF_5GHh-35" value="Apacheの中で&lt;br&gt;やっていること&lt;br&gt;＝サーバーサイド" style="dashed=0;outlineConnect=0;html=1;align=center;labelPosition=center;verticalLabelPosition=bottom;verticalAlign=top;shape=mxgraph.weblogos.apache" vertex="1" parent="1">
          <mxGeometry x="320" y="12.400000000000011" width="42.6" height="85.2" as="geometry" />
        </mxCell>
        <mxCell id="JNIvnvbmXsin8aF_5GHh-45" style="edgeStyle=orthogonalEdgeStyle;rounded=0;orthogonalLoop=1;jettySize=auto;html=1;exitX=1;exitY=0.75;exitDx=0;exitDy=0;curved=1;" edge="1" parent="1" source="JNIvnvbmXsin8aF_5GHh-36" target="JNIvnvbmXsin8aF_5GHh-39">
          <mxGeometry relative="1" as="geometry">
            <Array as="points">
              <mxPoint x="150" y="820" />
            </Array>
          </mxGeometry>
        </mxCell>
        <mxCell id="JNIvnvbmXsin8aF_5GHh-36" value="" style="shape=actor;whiteSpace=wrap;html=1;" vertex="1" parent="1">
          <mxGeometry x="60" y="800" width="90" height="120" as="geometry" />
        </mxCell>
        <mxCell id="JNIvnvbmXsin8aF_5GHh-38" value="この内容を書いて" style="shape=callout;whiteSpace=wrap;html=1;perimeter=calloutPerimeter;position2=0.25;" vertex="1" parent="1">
          <mxGeometry x="110" y="720" width="160" height="100" as="geometry" />
        </mxCell>
        <mxCell id="JNIvnvbmXsin8aF_5GHh-39" value="PHP" style="shape=umlActor;verticalLabelPosition=bottom;verticalAlign=top;html=1;outlineConnect=0;" vertex="1" parent="1">
          <mxGeometry x="515" y="785" width="85" height="150" as="geometry" />
        </mxCell>
        <mxCell id="JNIvnvbmXsin8aF_5GHh-42" value="" style="shape=image;html=1;verticalAlign=top;verticalLabelPosition=bottom;labelBackgroundColor=#ffffff;imageAspect=0;aspect=fixed;image=https://cdn4.iconfinder.com/data/icons/scripting-and-programming-languages/512/php-128.png" vertex="1" parent="1">
          <mxGeometry x="520" y="725" width="90" height="90" as="geometry" />
        </mxCell>
        <mxCell id="JNIvnvbmXsin8aF_5GHh-43" value="おっけー！" style="shape=callout;whiteSpace=wrap;html=1;perimeter=calloutPerimeter;position2=0;" vertex="1" parent="1">
          <mxGeometry x="610" y="732.5" width="120" height="75" as="geometry" />
        </mxCell>
        <mxCell id="JNIvnvbmXsin8aF_5GHh-46" value="書いてほしい内容" style="text;html=1;align=center;verticalAlign=middle;whiteSpace=wrap;rounded=0;" vertex="1" parent="1">
          <mxGeometry x="335" y="777.5" width="100" height="30" as="geometry" />
        </mxCell>
        <mxCell id="JNIvnvbmXsin8aF_5GHh-47" style="edgeStyle=orthogonalEdgeStyle;rounded=0;orthogonalLoop=1;jettySize=auto;html=1;entryX=1;entryY=1.017;entryDx=0;entryDy=0;entryPerimeter=0;curved=1;" edge="1" parent="1" source="JNIvnvbmXsin8aF_5GHh-39" target="JNIvnvbmXsin8aF_5GHh-36">
          <mxGeometry relative="1" as="geometry">
            <Array as="points">
              <mxPoint x="558" y="970" />
              <mxPoint x="150" y="970" />
            </Array>
          </mxGeometry>
        </mxCell>
        <mxCell id="JNIvnvbmXsin8aF_5GHh-48" value="HTMLで返答" style="text;html=1;align=center;verticalAlign=middle;whiteSpace=wrap;rounded=0;" vertex="1" parent="1">
          <mxGeometry x="300" y="930" width="120" height="30" as="geometry" />
        </mxCell>
        <mxCell id="JNIvnvbmXsin8aF_5GHh-54" value="" style="rounded=1;whiteSpace=wrap;html=1;textShadow=1;" vertex="1" parent="1">
          <mxGeometry x="300" y="190" width="80" height="40" as="geometry" />
        </mxCell>
        <mxCell id="JNIvnvbmXsin8aF_5GHh-50" value="$_POST" style="text;html=1;align=center;verticalAlign=middle;whiteSpace=wrap;rounded=0;fontStyle=1;fontSize=16;fontColor=#0066CC;labelBackgroundColor=none;labelBorderColor=none;textShadow=1;" vertex="1" parent="1">
          <mxGeometry x="310" y="195" width="60" height="30" as="geometry" />
        </mxCell>
        <mxCell id="JNIvnvbmXsin8aF_5GHh-55" value="スーパーグローバル変数！！" style="text;html=1;align=center;verticalAlign=middle;whiteSpace=wrap;rounded=0;fontFamily=Dela Gothic One;fontSource=https%3A%2F%2Ffonts.googleapis.com%2Fcss%3Ffamily%3DDela%2BGothic%2BOne;fontColor=#0066CC;textShadow=1;labelBorderColor=none;labelBackgroundColor=none;fontSize=17;" vertex="1" parent="1">
          <mxGeometry x="270" y="225" width="230" height="30" as="geometry" />
        </mxCell>
      </root>
    </mxGraphModel>
  </diagram>
  <diagram id="60GAB1L5InF_9qz5-I8F" name="ページ2">
    <mxGraphModel dx="989" dy="539" grid="1" gridSize="10" guides="1" tooltips="1" connect="1" arrows="1" fold="1" page="1" pageScale="1" pageWidth="827" pageHeight="1169" math="0" shadow="0">
      <root>
        <mxCell id="0" />
        <mxCell id="1" parent="0" />
        <mxCell id="JSbgTwOjfAMa3Hh0X25i-1" value="" style="rounded=1;whiteSpace=wrap;html=1;dashed=1;dashPattern=8 8;strokeColor=#b85450;fillColor=#f8cecc;gradientColor=#F26F6A;" vertex="1" parent="1">
          <mxGeometry x="270" y="10" width="550" height="680" as="geometry" />
        </mxCell>
        <mxCell id="JSbgTwOjfAMa3Hh0X25i-2" value="" style="rounded=1;whiteSpace=wrap;html=1;fillColor=#f5f5f5;gradientColor=#b3b3b3;strokeColor=#666666;" vertex="1" parent="1">
          <mxGeometry x="290" y="395" width="270" height="260" as="geometry" />
        </mxCell>
        <mxCell id="JSbgTwOjfAMa3Hh0X25i-3" value="" style="html=1;verticalLabelPosition=bottom;align=center;labelBackgroundColor=#ffffff;verticalAlign=top;strokeWidth=2;strokeColor=#0080F0;shadow=0;dashed=0;shape=mxgraph.ios7.icons.monitor;" vertex="1" parent="1">
          <mxGeometry x="20" y="140" width="210" height="190" as="geometry" />
        </mxCell>
        <mxCell id="JSbgTwOjfAMa3Hh0X25i-4" value="localhost" style="text;html=1;align=center;verticalAlign=middle;whiteSpace=wrap;rounded=0;" vertex="1" parent="1">
          <mxGeometry x="20" y="110" width="60" height="30" as="geometry" />
        </mxCell>
        <mxCell id="JSbgTwOjfAMa3Hh0X25i-5" value="input" style="text;html=1;align=center;verticalAlign=middle;whiteSpace=wrap;rounded=0;strokeColor=#FF0000;fontColor=#FF0000;strokeWidth=3;" vertex="1" parent="1">
          <mxGeometry x="50" y="170" width="90" height="30" as="geometry" />
        </mxCell>
        <mxCell id="JSbgTwOjfAMa3Hh0X25i-6" value="input2" style="text;html=1;align=center;verticalAlign=middle;whiteSpace=wrap;rounded=0;strokeColor=#0000FF;fontColor=#0000FF;strokeWidth=3;" vertex="1" parent="1">
          <mxGeometry x="50" y="230" width="90" height="30" as="geometry" />
        </mxCell>
        <mxCell id="JSbgTwOjfAMa3Hh0X25i-7" style="rounded=0;orthogonalLoop=1;jettySize=auto;html=1;" edge="1" parent="1" source="JSbgTwOjfAMa3Hh0X25i-9" target="JSbgTwOjfAMa3Hh0X25i-13">
          <mxGeometry relative="1" as="geometry" />
        </mxCell>
        <mxCell id="JSbgTwOjfAMa3Hh0X25i-8" style="rounded=0;orthogonalLoop=1;jettySize=auto;html=1;" edge="1" parent="1" source="JSbgTwOjfAMa3Hh0X25i-9" target="JSbgTwOjfAMa3Hh0X25i-14">
          <mxGeometry relative="1" as="geometry" />
        </mxCell>
        <mxCell id="JSbgTwOjfAMa3Hh0X25i-9" value="PHPくん" style="shape=note;whiteSpace=wrap;html=1;backgroundOutline=1;darkOpacity=0.05;" vertex="1" parent="1">
          <mxGeometry x="450" y="100" width="80" height="100" as="geometry" />
        </mxCell>
        <mxCell id="JSbgTwOjfAMa3Hh0X25i-10" style="rounded=0;orthogonalLoop=1;jettySize=auto;html=1;entryX=0;entryY=0.5;entryDx=0;entryDy=0;entryPerimeter=0;" edge="1" parent="1" source="JSbgTwOjfAMa3Hh0X25i-5" target="JSbgTwOjfAMa3Hh0X25i-9">
          <mxGeometry relative="1" as="geometry" />
        </mxCell>
        <mxCell id="JSbgTwOjfAMa3Hh0X25i-11" style="rounded=0;orthogonalLoop=1;jettySize=auto;html=1;entryX=0;entryY=0.5;entryDx=0;entryDy=0;entryPerimeter=0;" edge="1" parent="1" source="JSbgTwOjfAMa3Hh0X25i-6" target="JSbgTwOjfAMa3Hh0X25i-9">
          <mxGeometry relative="1" as="geometry" />
        </mxCell>
        <mxCell id="JSbgTwOjfAMa3Hh0X25i-12" value="ふむふむ、$_POST[&quot;&lt;font color=&quot;#ff0000&quot;&gt;input&quot;&lt;/font&gt;]ということは、&lt;font color=&quot;#ff0000&quot;&gt;input&lt;/font&gt;の内容は「&lt;font color=&quot;#ff0000&quot;&gt;にゃん&lt;/font&gt;」だな！&lt;br&gt;そして、$_POST[&quot;&lt;font color=&quot;#0000ff&quot;&gt;input2&lt;/font&gt;&quot;]ということは、&lt;font color=&quot;#0000ff&quot;&gt;input2&lt;/font&gt;の内容は「&lt;font color=&quot;#0000ff&quot;&gt;わん&lt;/font&gt;」だな！" style="shape=callout;whiteSpace=wrap;html=1;perimeter=calloutPerimeter;position2=0.17;shadow=1;rounded=1;" vertex="1" parent="1">
          <mxGeometry x="520" y="20" width="210" height="120" as="geometry" />
        </mxCell>
        <mxCell id="JSbgTwOjfAMa3Hh0X25i-13" value="$moji" style="shape=cube;whiteSpace=wrap;html=1;boundedLbl=1;backgroundOutline=1;darkOpacity=0.05;darkOpacity2=0.1;gradientColor=#FF0000;fontColor=#FFFFFF;" vertex="1" parent="1">
          <mxGeometry x="460" y="280" width="130" height="90" as="geometry" />
        </mxCell>
        <mxCell id="JSbgTwOjfAMa3Hh0X25i-14" value="$moji2" style="shape=cube;whiteSpace=wrap;html=1;boundedLbl=1;backgroundOutline=1;darkOpacity=0.05;darkOpacity2=0.1;gradientColor=#0000FF;fontColor=#FFFFFF;" vertex="1" parent="1">
          <mxGeometry x="630" y="280" width="130" height="90" as="geometry" />
        </mxCell>
        <mxCell id="JSbgTwOjfAMa3Hh0X25i-15" style="edgeStyle=orthogonalEdgeStyle;rounded=0;orthogonalLoop=1;jettySize=auto;html=1;entryX=1;entryY=0.5;entryDx=0;entryDy=0;shape=flexArrow;fillColor=default;" edge="1" parent="1" source="JSbgTwOjfAMa3Hh0X25i-16" target="JSbgTwOjfAMa3Hh0X25i-21">
          <mxGeometry relative="1" as="geometry" />
        </mxCell>
        <mxCell id="JSbgTwOjfAMa3Hh0X25i-16" value="PHPくん" style="shape=note;whiteSpace=wrap;html=1;backgroundOutline=1;darkOpacity=0.05;" vertex="1" parent="1">
          <mxGeometry x="580" y="460" width="80" height="100" as="geometry" />
        </mxCell>
        <mxCell id="JSbgTwOjfAMa3Hh0X25i-17" value="変数の内容を&lt;br&gt;echoしよう！" style="shape=callout;whiteSpace=wrap;html=1;perimeter=calloutPerimeter;textShadow=0;shadow=1;rounded=1;position2=0.19;" vertex="1" parent="1">
          <mxGeometry x="650" y="420" width="120" height="80" as="geometry" />
        </mxCell>
        <mxCell id="JSbgTwOjfAMa3Hh0X25i-18" style="rounded=0;orthogonalLoop=1;jettySize=auto;html=1;entryX=0.409;entryY=0.01;entryDx=0;entryDy=0;entryPerimeter=0;" edge="1" parent="1" source="JSbgTwOjfAMa3Hh0X25i-13" target="JSbgTwOjfAMa3Hh0X25i-16">
          <mxGeometry relative="1" as="geometry" />
        </mxCell>
        <mxCell id="JSbgTwOjfAMa3Hh0X25i-19" style="rounded=0;orthogonalLoop=1;jettySize=auto;html=1;entryX=0.435;entryY=0.017;entryDx=0;entryDy=0;entryPerimeter=0;" edge="1" parent="1" source="JSbgTwOjfAMa3Hh0X25i-14" target="JSbgTwOjfAMa3Hh0X25i-16">
          <mxGeometry relative="1" as="geometry" />
        </mxCell>
        <mxCell id="JSbgTwOjfAMa3Hh0X25i-20" value="※echoとは、&lt;b&gt;文字として書く&lt;/b&gt;こと" style="text;html=1;align=left;verticalAlign=middle;whiteSpace=wrap;rounded=0;" vertex="1" parent="1">
          <mxGeometry x="670" y="520" width="140" height="30" as="geometry" />
        </mxCell>
        <mxCell id="JSbgTwOjfAMa3Hh0X25i-21" value="" style="whiteSpace=wrap;html=1;aspect=fixed;" vertex="1" parent="1">
          <mxGeometry x="335" y="420" width="180" height="180" as="geometry" />
        </mxCell>
        <mxCell id="JSbgTwOjfAMa3Hh0X25i-22" value="&amp;lt;!DOCTYPE HTML&amp;gt;" style="text;html=1;align=center;verticalAlign=middle;whiteSpace=wrap;rounded=0;" vertex="1" parent="1">
          <mxGeometry x="335" y="420" width="130" height="30" as="geometry" />
        </mxCell>
        <mxCell id="JSbgTwOjfAMa3Hh0X25i-23" value="&amp;lt;p&amp;gt;&lt;font color=&quot;#ff0000&quot;&gt;$mojiの内容&lt;/font&gt;&amp;lt;/p&amp;gt;" style="text;html=1;align=left;verticalAlign=middle;whiteSpace=wrap;rounded=0;" vertex="1" parent="1">
          <mxGeometry x="345" y="510" width="160" height="30" as="geometry" />
        </mxCell>
        <mxCell id="JSbgTwOjfAMa3Hh0X25i-24" value="&amp;lt;p&amp;gt;&lt;font color=&quot;#0000ff&quot;&gt;$moji2の内容&lt;/font&gt;&amp;lt;/p&amp;gt;" style="text;html=1;align=left;verticalAlign=middle;whiteSpace=wrap;rounded=0;" vertex="1" parent="1">
          <mxGeometry x="345" y="540" width="160" height="30" as="geometry" />
        </mxCell>
        <mxCell id="JSbgTwOjfAMa3Hh0X25i-25" value="送信" style="rounded=1;whiteSpace=wrap;html=1;" vertex="1" parent="1">
          <mxGeometry x="170" y="260" width="50" height="20" as="geometry" />
        </mxCell>
        <mxCell id="JSbgTwOjfAMa3Hh0X25i-26" value="変数に格納&lt;br&gt;＝箱に入れること" style="text;html=1;align=center;verticalAlign=middle;whiteSpace=wrap;rounded=0;" vertex="1" parent="1">
          <mxGeometry x="575" y="133.8" width="155" height="30" as="geometry" />
        </mxCell>
        <mxCell id="JSbgTwOjfAMa3Hh0X25i-27" value="&lt;div align=&quot;left&quot;&gt;PHPのechoの出力が埋め込まれたHTMLが完成！&lt;/div&gt;" style="text;html=1;align=left;verticalAlign=middle;whiteSpace=wrap;rounded=0;" vertex="1" parent="1">
          <mxGeometry x="330" y="610" width="190" height="30" as="geometry" />
        </mxCell>
        <mxCell id="JSbgTwOjfAMa3Hh0X25i-28" value="完成したHTML" style="text;html=1;align=center;verticalAlign=middle;whiteSpace=wrap;rounded=0;" vertex="1" parent="1">
          <mxGeometry x="330" y="660" width="190" height="30" as="geometry" />
        </mxCell>
        <mxCell id="JSbgTwOjfAMa3Hh0X25i-29" style="edgeStyle=orthogonalEdgeStyle;rounded=0;orthogonalLoop=1;jettySize=auto;html=1;entryX=0.192;entryY=0.84;entryDx=0;entryDy=0;entryPerimeter=0;strokeColor=none;exitX=0;exitY=0.5;exitDx=0;exitDy=0;" edge="1" parent="1" source="JSbgTwOjfAMa3Hh0X25i-2" target="JSbgTwOjfAMa3Hh0X25i-3">
          <mxGeometry relative="1" as="geometry" />
        </mxCell>
        <mxCell id="JSbgTwOjfAMa3Hh0X25i-30" style="edgeStyle=orthogonalEdgeStyle;rounded=0;orthogonalLoop=1;jettySize=auto;html=1;entryX=0.196;entryY=0.845;entryDx=0;entryDy=0;entryPerimeter=0;exitX=0;exitY=0.5;exitDx=0;exitDy=0;" edge="1" parent="1" source="JSbgTwOjfAMa3Hh0X25i-2" target="JSbgTwOjfAMa3Hh0X25i-3">
          <mxGeometry relative="1" as="geometry" />
        </mxCell>
        <mxCell id="JSbgTwOjfAMa3Hh0X25i-31" value="完成したHTMLを&lt;br&gt;ブラウザで表示！" style="text;html=1;align=center;verticalAlign=middle;whiteSpace=wrap;rounded=0;" vertex="1" parent="1">
          <mxGeometry x="100" y="460" width="130" height="30" as="geometry" />
        </mxCell>
        <mxCell id="JSbgTwOjfAMa3Hh0X25i-32" value="PHPがやっていること：&lt;br&gt;ユーザーが欄に入力した内容に応じて&lt;br&gt;HTMLをオーダーメイドで作る" style="text;html=1;align=left;verticalAlign=middle;whiteSpace=wrap;rounded=0;" vertex="1" parent="1">
          <mxGeometry x="20" y="30" width="230" height="50" as="geometry" />
        </mxCell>
        <mxCell id="JSbgTwOjfAMa3Hh0X25i-33" value="Apacheの中で&lt;br&gt;やっていること&lt;br&gt;＝サーバーサイド" style="dashed=0;outlineConnect=0;html=1;align=center;labelPosition=center;verticalLabelPosition=bottom;verticalAlign=top;shape=mxgraph.weblogos.apache" vertex="1" parent="1">
          <mxGeometry x="320" y="12.400000000000011" width="42.6" height="85.2" as="geometry" />
        </mxCell>
        <mxCell id="JSbgTwOjfAMa3Hh0X25i-34" value="" style="rounded=1;whiteSpace=wrap;html=1;textShadow=1;" vertex="1" parent="1">
          <mxGeometry x="300" y="190" width="80" height="40" as="geometry" />
        </mxCell>
        <mxCell id="JSbgTwOjfAMa3Hh0X25i-35" value="$_POST" style="text;html=1;align=center;verticalAlign=middle;whiteSpace=wrap;rounded=0;fontStyle=1;fontSize=16;fontColor=#0066CC;labelBackgroundColor=none;labelBorderColor=none;textShadow=1;" vertex="1" parent="1">
          <mxGeometry x="310" y="195" width="60" height="30" as="geometry" />
        </mxCell>
        <mxCell id="JSbgTwOjfAMa3Hh0X25i-36" value="スーパーグローバル変数！！" style="text;html=1;align=center;verticalAlign=middle;whiteSpace=wrap;rounded=0;fontFamily=Dela Gothic One;fontSource=https%3A%2F%2Ffonts.googleapis.com%2Fcss%3Ffamily%3DDela%2BGothic%2BOne;fontColor=#0066CC;textShadow=1;labelBorderColor=none;labelBackgroundColor=none;fontSize=17;" vertex="1" parent="1">
          <mxGeometry x="270" y="225" width="230" height="30" as="geometry" />
        </mxCell>
        <mxCell id="JSbgTwOjfAMa3Hh0X25i-37" value="にゃん" style="shape=callout;whiteSpace=wrap;html=1;perimeter=calloutPerimeter;position2=0.17;" vertex="1" parent="1">
          <mxGeometry x="105" y="120" width="105" height="57.6" as="geometry" />
        </mxCell>
        <mxCell id="JSbgTwOjfAMa3Hh0X25i-38" value="わん" style="shape=callout;whiteSpace=wrap;html=1;perimeter=calloutPerimeter;position2=0.17;" vertex="1" parent="1">
          <mxGeometry x="115" y="190" width="105" height="57.6" as="geometry" />
        </mxCell>
        <mxCell id="JSbgTwOjfAMa3Hh0X25i-39" value="にゃん" style="text;html=1;align=center;verticalAlign=middle;whiteSpace=wrap;rounded=0;" vertex="1" parent="1">
          <mxGeometry x="505" y="230" width="60" height="30" as="geometry" />
        </mxCell>
        <mxCell id="JSbgTwOjfAMa3Hh0X25i-40" value="わん" style="text;html=1;align=center;verticalAlign=middle;whiteSpace=wrap;rounded=0;" vertex="1" parent="1">
          <mxGeometry x="610" y="230" width="60" height="30" as="geometry" />
        </mxCell>
      </root>
    </mxGraphModel>
  </diagram>
  <diagram id="hfnOyLlMJBV5JynAjztf" name="スーパーグローバル変数">
    <mxGraphModel dx="1195" dy="652" grid="1" gridSize="10" guides="1" tooltips="1" connect="1" arrows="1" fold="1" page="1" pageScale="1" pageWidth="827" pageHeight="1169" math="0" shadow="0">
      <root>
        <mxCell id="0" />
        <mxCell id="1" parent="0" />
        <mxCell id="_ij-KoNwKTHkiTIqPwq0-1" value="&lt;div style=&quot;color: rgb(212, 212, 212); background-color: rgb(30, 30, 30); font-family: Consolas, &amp;quot;Courier New&amp;quot;, monospace; font-weight: normal; font-size: 20px; line-height: 19px; white-space: pre;&quot;&gt;&lt;div style=&quot;font-size: 20px;&quot;&gt;&lt;span style=&quot;color: rgb(128, 128, 128); font-size: 20px;&quot;&gt;&amp;lt;&lt;/span&gt;&lt;span style=&quot;color: rgb(86, 156, 214); font-size: 20px;&quot;&gt;form&lt;/span&gt;&lt;span style=&quot;color: rgb(212, 212, 212); font-size: 20px;&quot;&gt;&amp;nbsp;&lt;/span&gt;&lt;span style=&quot;color: rgb(156, 220, 254); font-size: 20px;&quot;&gt;action&lt;/span&gt;&lt;span style=&quot;color: rgb(212, 212, 212); font-size: 20px;&quot;&gt;=&lt;/span&gt;&lt;span style=&quot;color: rgb(206, 145, 120); font-size: 20px;&quot;&gt;&quot;html-echo.php&quot;&lt;/span&gt;&lt;span style=&quot;color: rgb(212, 212, 212); font-size: 20px;&quot;&gt;&amp;nbsp;&lt;/span&gt;&lt;span style=&quot;color: rgb(156, 220, 254); font-size: 20px;&quot;&gt;method&lt;/span&gt;&lt;span style=&quot;color: rgb(212, 212, 212); font-size: 20px;&quot;&gt;=&lt;/span&gt;&lt;span style=&quot;color: rgb(206, 145, 120); font-size: 20px;&quot;&gt;&quot;post&quot;&lt;/span&gt;&lt;span style=&quot;color: rgb(128, 128, 128); font-size: 20px;&quot;&gt;&amp;gt;&lt;/span&gt;&lt;/div&gt;&lt;/div&gt;" style="text;html=1;align=center;verticalAlign=middle;whiteSpace=wrap;rounded=0;fontSize=20;" vertex="1" parent="1">
          <mxGeometry x="120" y="80" width="490" height="30" as="geometry" />
        </mxCell>
        <mxCell id="_ij-KoNwKTHkiTIqPwq0-2" value="&lt;div style=&quot;color: rgb(212, 212, 212); background-color: rgb(30, 30, 30); font-family: Consolas, &amp;quot;Courier New&amp;quot;, monospace; font-weight: normal; font-size: 20px; line-height: 19px; white-space: pre;&quot;&gt;&lt;div style=&quot;font-size: 20px;&quot;&gt;&lt;span style=&quot;color: rgb(128, 128, 128); font-size: 20px;&quot;&gt;&amp;lt;&lt;/span&gt;&lt;span style=&quot;color: rgb(86, 156, 214); font-size: 20px;&quot;&gt;input&lt;/span&gt;&lt;span style=&quot;color: rgb(212, 212, 212); font-size: 20px;&quot;&gt;&amp;nbsp;&lt;/span&gt;&lt;span style=&quot;color: rgb(156, 220, 254); font-size: 20px;&quot;&gt;type&lt;/span&gt;&lt;span style=&quot;color: rgb(212, 212, 212); font-size: 20px;&quot;&gt;=&lt;/span&gt;&lt;span style=&quot;color: rgb(206, 145, 120); font-size: 20px;&quot;&gt;&quot;text&quot;&lt;/span&gt;&lt;span style=&quot;color: rgb(212, 212, 212); font-size: 20px;&quot;&gt;&amp;nbsp;&lt;/span&gt;&lt;span style=&quot;color: rgb(156, 220, 254); font-size: 20px;&quot;&gt;id&lt;/span&gt;&lt;span style=&quot;color: rgb(212, 212, 212); font-size: 20px;&quot;&gt;=&lt;/span&gt;&lt;span style=&quot;color: rgb(206, 145, 120); font-size: 20px;&quot;&gt;&quot;input&quot;&lt;/span&gt;&lt;span style=&quot;color: rgb(212, 212, 212); font-size: 20px;&quot;&gt;&amp;nbsp;&lt;/span&gt;&lt;span style=&quot;color: rgb(156, 220, 254); font-size: 20px;&quot;&gt;name&lt;/span&gt;&lt;span style=&quot;color: rgb(212, 212, 212); font-size: 20px;&quot;&gt;=&lt;/span&gt;&lt;span style=&quot;color: rgb(206, 145, 120); font-size: 20px;&quot;&gt;&quot;input&quot;&lt;/span&gt;&lt;span style=&quot;color: rgb(128, 128, 128); font-size: 20px;&quot;&gt;&amp;gt;&lt;/span&gt;&lt;/div&gt;&lt;/div&gt;" style="text;html=1;align=center;verticalAlign=middle;whiteSpace=wrap;rounded=0;fontSize=20;" vertex="1" parent="1">
          <mxGeometry x="120" y="125" width="490" height="30" as="geometry" />
        </mxCell>
        <mxCell id="_ij-KoNwKTHkiTIqPwq0-15" style="edgeStyle=orthogonalEdgeStyle;rounded=0;orthogonalLoop=1;jettySize=auto;html=1;entryX=1;entryY=0.5;entryDx=0;entryDy=0;curved=1;" edge="1" parent="1" source="_ij-KoNwKTHkiTIqPwq0-3" target="_ij-KoNwKTHkiTIqPwq0-13">
          <mxGeometry relative="1" as="geometry">
            <Array as="points">
              <mxPoint x="470" y="330" />
              <mxPoint x="470" y="514" />
            </Array>
          </mxGeometry>
        </mxCell>
        <mxCell id="_ij-KoNwKTHkiTIqPwq0-3" value="&lt;font color=&quot;#0066cc&quot; style=&quot;font-size: 16px;&quot;&gt;&lt;b&gt;$_POST&lt;/b&gt;&lt;br&gt;&lt;/font&gt;" style="rounded=1;whiteSpace=wrap;html=1;" vertex="1" parent="1">
          <mxGeometry x="330" y="300" width="120" height="60" as="geometry" />
        </mxCell>
        <mxCell id="_ij-KoNwKTHkiTIqPwq0-6" style="rounded=0;orthogonalLoop=1;jettySize=auto;html=1;entryX=0.5;entryY=0;entryDx=0;entryDy=0;" edge="1" parent="1" source="_ij-KoNwKTHkiTIqPwq0-5" target="_ij-KoNwKTHkiTIqPwq0-3">
          <mxGeometry relative="1" as="geometry" />
        </mxCell>
        <mxCell id="_ij-KoNwKTHkiTIqPwq0-5" value="" style="ellipse;whiteSpace=wrap;html=1;fillColor=none;strokeColor=#FF3333;strokeWidth=3;dashed=1;" vertex="1" parent="1">
          <mxGeometry x="450" y="120" width="170" height="40" as="geometry" />
        </mxCell>
        <mxCell id="_ij-KoNwKTHkiTIqPwq0-7" value="おいらは&lt;br&gt;&quot;input&quot;の内容を&lt;br&gt;持っているんだぜい" style="shape=callout;whiteSpace=wrap;html=1;perimeter=calloutPerimeter;position2=0;" vertex="1" parent="1">
          <mxGeometry x="460" y="240" width="120" height="80" as="geometry" />
        </mxCell>
        <mxCell id="_ij-KoNwKTHkiTIqPwq0-8" value="" style="rounded=1;whiteSpace=wrap;html=1;fillColor=none;dashed=1;strokeWidth=3;strokeColor=#0066CC;" vertex="1" parent="1">
          <mxGeometry x="440" y="80" width="160" height="30" as="geometry" />
        </mxCell>
        <mxCell id="_ij-KoNwKTHkiTIqPwq0-9" value="" style="shape=actor;whiteSpace=wrap;html=1;" vertex="1" parent="1">
          <mxGeometry x="130" y="190" width="80" height="100" as="geometry" />
        </mxCell>
        <mxCell id="_ij-KoNwKTHkiTIqPwq0-10" value="" style="endArrow=classic;html=1;rounded=0;exitX=0.952;exitY=0.665;exitDx=0;exitDy=0;exitPerimeter=0;entryX=0.5;entryY=1;entryDx=0;entryDy=0;" edge="1" parent="1" source="_ij-KoNwKTHkiTIqPwq0-9" target="_ij-KoNwKTHkiTIqPwq0-2">
          <mxGeometry width="50" height="50" relative="1" as="geometry">
            <mxPoint x="250" y="270" as="sourcePoint" />
            <mxPoint x="300" y="220" as="targetPoint" />
          </mxGeometry>
        </mxCell>
        <mxCell id="_ij-KoNwKTHkiTIqPwq0-11" value="入力：「にゃん」" style="text;html=1;align=center;verticalAlign=middle;whiteSpace=wrap;rounded=0;" vertex="1" parent="1">
          <mxGeometry x="210" y="180" width="100" height="30" as="geometry" />
        </mxCell>
        <mxCell id="_ij-KoNwKTHkiTIqPwq0-20" style="edgeStyle=orthogonalEdgeStyle;rounded=0;orthogonalLoop=1;jettySize=auto;html=1;" edge="1" parent="1" source="_ij-KoNwKTHkiTIqPwq0-13" target="_ij-KoNwKTHkiTIqPwq0-19">
          <mxGeometry relative="1" as="geometry" />
        </mxCell>
        <mxCell id="_ij-KoNwKTHkiTIqPwq0-13" value="" style="shape=image;html=1;verticalAlign=top;verticalLabelPosition=bottom;labelBackgroundColor=#ffffff;imageAspect=0;aspect=fixed;image=https://cdn3.iconfinder.com/data/icons/essential-pack/32/57-File_Format-Php-128.png" vertex="1" parent="1">
          <mxGeometry x="170" y="450" width="128" height="128" as="geometry" />
        </mxCell>
        <mxCell id="_ij-KoNwKTHkiTIqPwq0-14" value="$_POSTくん、&lt;br&gt;キミのなかの&lt;br&gt;&quot;input&quot;の内容を教えて？" style="shape=callout;whiteSpace=wrap;html=1;perimeter=calloutPerimeter;position2=0;" vertex="1" parent="1">
          <mxGeometry x="290" y="390" width="140" height="90" as="geometry" />
        </mxCell>
        <mxCell id="_ij-KoNwKTHkiTIqPwq0-17" value="&quot;input&quot;の中身は「にゃん」という文字列！" style="shape=callout;whiteSpace=wrap;html=1;perimeter=calloutPerimeter;position2=0;" vertex="1" parent="1">
          <mxGeometry x="470" y="340" width="120" height="80" as="geometry" />
        </mxCell>
        <mxCell id="_ij-KoNwKTHkiTIqPwq0-19" value="$moji" style="shape=cube;whiteSpace=wrap;html=1;boundedLbl=1;backgroundOutline=1;darkOpacity=0.05;darkOpacity2=0.1;" vertex="1" parent="1">
          <mxGeometry x="174" y="739" width="120" height="80" as="geometry" />
        </mxCell>
        <mxCell id="_ij-KoNwKTHkiTIqPwq0-22" value="無事「にゃん」を&lt;br&gt;格納！" style="shape=callout;whiteSpace=wrap;html=1;perimeter=calloutPerimeter;position2=0;" vertex="1" parent="1">
          <mxGeometry x="240" y="590" width="120" height="80" as="geometry" />
        </mxCell>
        <mxCell id="_ij-KoNwKTHkiTIqPwq0-23" value="ユーザー" style="text;html=1;align=center;verticalAlign=middle;whiteSpace=wrap;rounded=0;" vertex="1" parent="1">
          <mxGeometry x="140" y="290" width="60" height="30" as="geometry" />
        </mxCell>
        <mxCell id="_ij-KoNwKTHkiTIqPwq0-24" value="" style="shape=image;verticalLabelPosition=bottom;labelBackgroundColor=default;verticalAlign=top;aspect=fixed;imageAspect=0;image=https://blogger.googleusercontent.com/img/b/R29vZ2xl/AVvXsEiy7FoiaE-kZrbiRTNZO1Tjtb8MYaoqu5Szb1vwWT4XDfljVBdPkqvvEpEUuSZh4z_0ctaHNM9rVg8lozc7hE8SsSArdhi2WqyNsRh_0BWHX6Z5zqpt4-M60nIGh4lqzSxhtXl9ogpzSIHV/s400/pet_nekotsugura.png;" vertex="1" parent="1">
          <mxGeometry x="336.5" y="640" width="123.5" height="130" as="geometry" />
        </mxCell>
      </root>
    </mxGraphModel>
  </diagram>
</mxfile>
